<svg xmlns="http://www.w3.org/2000/svg" xmlns:xlink="http://www.w3.org/1999/xlink" width="600" height="400" viewBox="0 0 2400 1600">
<defs>
  <clipPath id="clip550">
    <rect x="0" y="0" width="2400" height="1600"></rect>
  </clipPath>
</defs>
<path clip-path="url(#clip550)" d="M0 1600 L2400 1600 L2400 0 L0 0  Z" fill="#ffffff" fill-rule="evenodd" fill-opacity="1"></path>
<defs>
  <clipPath id="clip551">
    <rect x="480" y="0" width="1681" height="1600"></rect>
  </clipPath>
</defs>
<path clip-path="url(#clip550)" d="M235.283 1423.18 L2352.76 1423.18 L2352.76 123.472 L235.283 123.472  Z" fill="#ffffff" fill-rule="evenodd" fill-opacity="1"></path>
<defs>
  <clipPath id="clip552">
    <rect x="235" y="123" width="2118" height="1301"></rect>
  </clipPath>
</defs>
<polyline clip-path="url(#clip552)" style="stroke:#000000; stroke-linecap:round; stroke-linejoin:round; stroke-width:2; stroke-opacity:0.1; fill:none" points="476.813,1423.18 476.813,123.472 "></polyline>
<polyline clip-path="url(#clip552)" style="stroke:#000000; stroke-linecap:round; stroke-linejoin:round; stroke-width:2; stroke-opacity:0.1; fill:none" points="840.016,1423.18 840.016,123.472 "></polyline>
<polyline clip-path="url(#clip552)" style="stroke:#000000; stroke-linecap:round; stroke-linejoin:round; stroke-width:2; stroke-opacity:0.1; fill:none" points="1203.22,1423.18 1203.22,123.472 "></polyline>
<polyline clip-path="url(#clip552)" style="stroke:#000000; stroke-linecap:round; stroke-linejoin:round; stroke-width:2; stroke-opacity:0.1; fill:none" points="1566.42,1423.18 1566.42,123.472 "></polyline>
<polyline clip-path="url(#clip552)" style="stroke:#000000; stroke-linecap:round; stroke-linejoin:round; stroke-width:2; stroke-opacity:0.1; fill:none" points="1929.62,1423.18 1929.62,123.472 "></polyline>
<polyline clip-path="url(#clip552)" style="stroke:#000000; stroke-linecap:round; stroke-linejoin:round; stroke-width:2; stroke-opacity:0.1; fill:none" points="2292.83,1423.18 2292.83,123.472 "></polyline>
<polyline clip-path="url(#clip550)" style="stroke:#000000; stroke-linecap:round; stroke-linejoin:round; stroke-width:4; stroke-opacity:1; fill:none" points="235.283,1423.18 2352.76,1423.18 "></polyline>
<polyline clip-path="url(#clip550)" style="stroke:#000000; stroke-linecap:round; stroke-linejoin:round; stroke-width:4; stroke-opacity:1; fill:none" points="476.813,1423.18 476.813,1404.28 "></polyline>
<polyline clip-path="url(#clip550)" style="stroke:#000000; stroke-linecap:round; stroke-linejoin:round; stroke-width:4; stroke-opacity:1; fill:none" points="840.016,1423.18 840.016,1404.28 "></polyline>
<polyline clip-path="url(#clip550)" style="stroke:#000000; stroke-linecap:round; stroke-linejoin:round; stroke-width:4; stroke-opacity:1; fill:none" points="1203.22,1423.18 1203.22,1404.28 "></polyline>
<polyline clip-path="url(#clip550)" style="stroke:#000000; stroke-linecap:round; stroke-linejoin:round; stroke-width:4; stroke-opacity:1; fill:none" points="1566.42,1423.18 1566.42,1404.28 "></polyline>
<polyline clip-path="url(#clip550)" style="stroke:#000000; stroke-linecap:round; stroke-linejoin:round; stroke-width:4; stroke-opacity:1; fill:none" points="1929.62,1423.18 1929.62,1404.28 "></polyline>
<polyline clip-path="url(#clip550)" style="stroke:#000000; stroke-linecap:round; stroke-linejoin:round; stroke-width:4; stroke-opacity:1; fill:none" points="2292.83,1423.18 2292.83,1404.28 "></polyline>
<path clip-path="url(#clip550)" d="M467.195 1481.64 L474.834 1481.64 L474.834 1455.28 L466.523 1456.95 L466.523 1452.69 L474.787 1451.02 L479.463 1451.02 L479.463 1481.64 L487.102 1481.64 L487.102 1485.58 L467.195 1485.58 L467.195 1481.64 Z" fill="#000000" fill-rule="nonzero" fill-opacity="1"></path><path clip-path="url(#clip550)" d="M834.669 1481.64 L850.988 1481.64 L850.988 1485.58 L829.044 1485.58 L829.044 1481.64 Q831.706 1478.89 836.289 1474.26 Q840.895 1469.61 842.076 1468.27 Q844.321 1465.74 845.201 1464.01 Q846.104 1462.25 846.104 1460.56 Q846.104 1457.8 844.159 1456.07 Q842.238 1454.33 839.136 1454.33 Q836.937 1454.33 834.483 1455.09 Q832.053 1455.86 829.275 1457.41 L829.275 1452.69 Q832.099 1451.55 834.553 1450.97 Q837.006 1450.39 839.044 1450.39 Q844.414 1450.39 847.608 1453.08 Q850.803 1455.77 850.803 1460.26 Q850.803 1462.39 849.993 1464.31 Q849.205 1466.2 847.099 1468.8 Q846.52 1469.47 843.418 1472.69 Q840.317 1475.88 834.669 1481.64 Z" fill="#000000" fill-rule="nonzero" fill-opacity="1"></path><path clip-path="url(#clip550)" d="M1207.47 1466.95 Q1210.82 1467.66 1212.7 1469.93 Q1214.6 1472.2 1214.6 1475.53 Q1214.6 1480.65 1211.08 1483.45 Q1207.56 1486.25 1201.08 1486.25 Q1198.9 1486.25 1196.59 1485.81 Q1194.3 1485.39 1191.84 1484.54 L1191.84 1480.02 Q1193.79 1481.16 1196.1 1481.74 Q1198.42 1482.32 1200.94 1482.32 Q1205.34 1482.32 1207.63 1480.58 Q1209.94 1478.84 1209.94 1475.53 Q1209.94 1472.48 1207.79 1470.77 Q1205.66 1469.03 1201.84 1469.03 L1197.81 1469.03 L1197.81 1465.19 L1202.03 1465.19 Q1205.48 1465.19 1207.3 1463.82 Q1209.13 1462.43 1209.13 1459.84 Q1209.13 1457.18 1207.23 1455.77 Q1205.36 1454.33 1201.84 1454.33 Q1199.92 1454.33 1197.72 1454.75 Q1195.52 1455.16 1192.88 1456.04 L1192.88 1451.88 Q1195.55 1451.14 1197.86 1450.77 Q1200.2 1450.39 1202.26 1450.39 Q1207.58 1450.39 1210.68 1452.83 Q1213.79 1455.23 1213.79 1459.35 Q1213.79 1462.22 1212.14 1464.21 Q1210.5 1466.18 1207.47 1466.95 Z" fill="#000000" fill-rule="nonzero" fill-opacity="1"></path><path clip-path="url(#clip550)" d="M1569.43 1455.09 L1557.63 1473.54 L1569.43 1473.54 L1569.43 1455.09 M1568.2 1451.02 L1574.08 1451.02 L1574.08 1473.54 L1579.01 1473.54 L1579.01 1477.43 L1574.08 1477.43 L1574.08 1485.58 L1569.43 1485.58 L1569.43 1477.43 L1553.83 1477.43 L1553.83 1472.92 L1568.2 1451.02 Z" fill="#000000" fill-rule="nonzero" fill-opacity="1"></path><path clip-path="url(#clip550)" d="M1919.9 1451.02 L1938.26 1451.02 L1938.26 1454.96 L1924.18 1454.96 L1924.18 1463.43 Q1925.2 1463.08 1926.22 1462.92 Q1927.24 1462.73 1928.26 1462.73 Q1934.05 1462.73 1937.43 1465.9 Q1940.8 1469.08 1940.8 1474.49 Q1940.8 1480.07 1937.33 1483.17 Q1933.86 1486.25 1927.54 1486.25 Q1925.37 1486.25 1923.1 1485.88 Q1920.85 1485.51 1918.44 1484.77 L1918.44 1480.07 Q1920.53 1481.2 1922.75 1481.76 Q1924.97 1482.32 1927.45 1482.32 Q1931.45 1482.32 1933.79 1480.21 Q1936.13 1478.1 1936.13 1474.49 Q1936.13 1470.88 1933.79 1468.77 Q1931.45 1466.67 1927.45 1466.67 Q1925.57 1466.67 1923.7 1467.08 Q1921.85 1467.5 1919.9 1468.38 L1919.9 1451.02 Z" fill="#000000" fill-rule="nonzero" fill-opacity="1"></path><path clip-path="url(#clip550)" d="M2293.23 1466.44 Q2290.08 1466.44 2288.23 1468.59 Q2286.4 1470.74 2286.4 1474.49 Q2286.4 1478.22 2288.23 1480.39 Q2290.08 1482.55 2293.23 1482.55 Q2296.38 1482.55 2298.21 1480.39 Q2300.06 1478.22 2300.06 1474.49 Q2300.06 1470.74 2298.21 1468.59 Q2296.38 1466.44 2293.23 1466.44 M2302.51 1451.78 L2302.51 1456.04 Q2300.76 1455.21 2298.95 1454.77 Q2297.17 1454.33 2295.41 1454.33 Q2290.78 1454.33 2288.33 1457.45 Q2285.89 1460.58 2285.55 1466.9 Q2286.91 1464.89 2288.97 1463.82 Q2291.03 1462.73 2293.51 1462.73 Q2298.72 1462.73 2301.73 1465.9 Q2304.76 1469.05 2304.76 1474.49 Q2304.76 1479.82 2301.61 1483.03 Q2298.46 1486.25 2293.23 1486.25 Q2287.24 1486.25 2284.07 1481.67 Q2280.89 1477.06 2280.89 1468.33 Q2280.89 1460.14 2284.78 1455.28 Q2288.67 1450.39 2295.22 1450.39 Q2296.98 1450.39 2298.76 1450.74 Q2300.57 1451.09 2302.51 1451.78 Z" fill="#000000" fill-rule="nonzero" fill-opacity="1"></path><path clip-path="url(#clip550)" d="M1202.74 1536.5 Q1198.02 1536.5 1195.29 1540.19 Q1192.55 1543.85 1192.55 1550.25 Q1192.55 1556.65 1195.26 1560.34 Q1197.99 1564 1202.74 1564 Q1207.41 1564 1210.15 1560.31 Q1212.89 1556.62 1212.89 1550.25 Q1212.89 1543.92 1210.15 1540.23 Q1207.41 1536.5 1202.74 1536.5 M1202.74 1531.54 Q1210.37 1531.54 1214.73 1536.5 Q1219.1 1541.47 1219.1 1550.25 Q1219.1 1559 1214.73 1564 Q1210.37 1568.97 1202.74 1568.97 Q1195.06 1568.97 1190.7 1564 Q1186.38 1559 1186.38 1550.25 Q1186.38 1541.47 1190.7 1536.5 Q1195.06 1531.54 1202.74 1531.54 Z" fill="#000000" fill-rule="nonzero" fill-opacity="1"></path><path clip-path="url(#clip550)" d="M1256.56 1539.24 Q1258.75 1535.29 1261.81 1533.41 Q1264.86 1531.54 1269 1531.54 Q1274.57 1531.54 1277.6 1535.45 Q1280.62 1539.33 1280.62 1546.53 L1280.62 1568.04 L1274.73 1568.04 L1274.73 1546.72 Q1274.73 1541.59 1272.92 1539.11 Q1271.1 1536.63 1267.38 1536.63 Q1262.83 1536.63 1260.19 1539.65 Q1257.54 1542.68 1257.54 1547.9 L1257.54 1568.04 L1251.66 1568.04 L1251.66 1546.72 Q1251.66 1541.56 1249.84 1539.11 Q1248.03 1536.63 1244.24 1536.63 Q1239.75 1536.63 1237.11 1539.68 Q1234.47 1542.71 1234.47 1547.9 L1234.47 1568.04 L1228.58 1568.04 L1228.58 1532.4 L1234.47 1532.4 L1234.47 1537.93 Q1236.47 1534.66 1239.27 1533.1 Q1242.08 1531.54 1245.93 1531.54 Q1249.81 1531.54 1252.51 1533.51 Q1255.25 1535.48 1256.56 1539.24 Z" fill="#000000" fill-rule="nonzero" fill-opacity="1"></path><path clip-path="url(#clip550)" d="M1322.79 1548.76 L1322.79 1551.62 L1295.87 1551.62 Q1296.25 1557.67 1299.49 1560.85 Q1302.77 1564 1308.6 1564 Q1311.97 1564 1315.12 1563.17 Q1318.3 1562.35 1321.42 1560.69 L1321.42 1566.23 Q1318.27 1567.57 1314.96 1568.27 Q1311.65 1568.97 1308.25 1568.97 Q1299.72 1568.97 1294.72 1564 Q1289.75 1559.04 1289.75 1550.57 Q1289.75 1541.82 1294.46 1536.69 Q1299.21 1531.54 1307.23 1531.54 Q1314.42 1531.54 1318.59 1536.18 Q1322.79 1540.8 1322.79 1548.76 M1316.94 1547.04 Q1316.87 1542.23 1314.23 1539.37 Q1311.62 1536.5 1307.29 1536.5 Q1302.39 1536.5 1299.43 1539.27 Q1296.5 1542.04 1296.06 1547.07 L1316.94 1547.04 Z" fill="#000000" fill-rule="nonzero" fill-opacity="1"></path><path clip-path="url(#clip550)" d="M1355.86 1549.81 Q1355.86 1543.44 1353.22 1539.94 Q1350.61 1536.44 1345.87 1536.44 Q1341.16 1536.44 1338.52 1539.94 Q1335.91 1543.44 1335.91 1549.81 Q1335.91 1556.14 1338.52 1559.64 Q1341.16 1563.14 1345.87 1563.14 Q1350.61 1563.14 1353.22 1559.64 Q1355.86 1556.14 1355.86 1549.81 M1361.72 1563.62 Q1361.72 1572.72 1357.68 1577.15 Q1353.63 1581.6 1345.3 1581.6 Q1342.21 1581.6 1339.47 1581.13 Q1336.73 1580.68 1334.16 1579.72 L1334.16 1574.03 Q1336.73 1575.43 1339.25 1576.1 Q1341.76 1576.76 1344.37 1576.76 Q1350.13 1576.76 1353 1573.74 Q1355.86 1570.75 1355.86 1564.67 L1355.86 1561.77 Q1354.05 1564.92 1351.22 1566.48 Q1348.38 1568.04 1344.44 1568.04 Q1337.88 1568.04 1333.87 1563.05 Q1329.86 1558.05 1329.86 1549.81 Q1329.86 1541.53 1333.87 1536.53 Q1337.88 1531.54 1344.44 1531.54 Q1348.38 1531.54 1351.22 1533.1 Q1354.05 1534.66 1355.86 1537.81 L1355.86 1532.4 L1361.72 1532.4 L1361.72 1563.62 Z" fill="#000000" fill-rule="nonzero" fill-opacity="1"></path><path clip-path="url(#clip550)" d="M1389.98 1550.12 Q1382.88 1550.12 1380.15 1551.75 Q1377.41 1553.37 1377.41 1557.29 Q1377.41 1560.4 1379.45 1562.25 Q1381.52 1564.07 1385.05 1564.07 Q1389.92 1564.07 1392.85 1560.63 Q1395.81 1557.16 1395.81 1551.43 L1395.81 1550.12 L1389.98 1550.12 M1401.66 1547.71 L1401.66 1568.04 L1395.81 1568.04 L1395.81 1562.63 Q1393.8 1565.88 1390.81 1567.44 Q1387.82 1568.97 1383.49 1568.97 Q1378.01 1568.97 1374.77 1565.91 Q1371.55 1562.82 1371.55 1557.67 Q1371.55 1551.65 1375.56 1548.6 Q1379.61 1545.54 1387.6 1545.54 L1395.81 1545.54 L1395.81 1544.97 Q1395.81 1540.93 1393.13 1538.73 Q1390.49 1536.5 1385.69 1536.5 Q1382.63 1536.5 1379.73 1537.23 Q1376.84 1537.97 1374.16 1539.43 L1374.16 1534.02 Q1377.38 1532.78 1380.4 1532.17 Q1383.43 1531.54 1386.29 1531.54 Q1394.02 1531.54 1397.84 1535.55 Q1401.66 1539.56 1401.66 1547.71 Z" fill="#000000" fill-rule="nonzero" fill-opacity="1"></path><polyline clip-path="url(#clip552)" style="stroke:#000000; stroke-linecap:round; stroke-linejoin:round; stroke-width:2; stroke-opacity:0.1; fill:none" points="235.283,1175.69 2352.76,1175.69 "></polyline>
<polyline clip-path="url(#clip552)" style="stroke:#000000; stroke-linecap:round; stroke-linejoin:round; stroke-width:2; stroke-opacity:0.1; fill:none" points="235.283,921.834 2352.76,921.834 "></polyline>
<polyline clip-path="url(#clip552)" style="stroke:#000000; stroke-linecap:round; stroke-linejoin:round; stroke-width:2; stroke-opacity:0.1; fill:none" points="235.283,667.974 2352.76,667.974 "></polyline>
<polyline clip-path="url(#clip552)" style="stroke:#000000; stroke-linecap:round; stroke-linejoin:round; stroke-width:2; stroke-opacity:0.1; fill:none" points="235.283,414.115 2352.76,414.115 "></polyline>
<polyline clip-path="url(#clip552)" style="stroke:#000000; stroke-linecap:round; stroke-linejoin:round; stroke-width:2; stroke-opacity:0.1; fill:none" points="235.283,160.256 2352.76,160.256 "></polyline>
<polyline clip-path="url(#clip550)" style="stroke:#000000; stroke-linecap:round; stroke-linejoin:round; stroke-width:4; stroke-opacity:1; fill:none" points="235.283,1423.18 235.283,123.472 "></polyline>
<polyline clip-path="url(#clip550)" style="stroke:#000000; stroke-linecap:round; stroke-linejoin:round; stroke-width:4; stroke-opacity:1; fill:none" points="235.283,1175.69 254.18,1175.69 "></polyline>
<polyline clip-path="url(#clip550)" style="stroke:#000000; stroke-linecap:round; stroke-linejoin:round; stroke-width:4; stroke-opacity:1; fill:none" points="235.283,921.834 254.18,921.834 "></polyline>
<polyline clip-path="url(#clip550)" style="stroke:#000000; stroke-linecap:round; stroke-linejoin:round; stroke-width:4; stroke-opacity:1; fill:none" points="235.283,667.974 254.18,667.974 "></polyline>
<polyline clip-path="url(#clip550)" style="stroke:#000000; stroke-linecap:round; stroke-linejoin:round; stroke-width:4; stroke-opacity:1; fill:none" points="235.283,414.115 254.18,414.115 "></polyline>
<polyline clip-path="url(#clip550)" style="stroke:#000000; stroke-linecap:round; stroke-linejoin:round; stroke-width:4; stroke-opacity:1; fill:none" points="235.283,160.256 254.18,160.256 "></polyline>
<path clip-path="url(#clip550)" d="M117.825 1189.04 L125.464 1189.04 L125.464 1162.67 L117.154 1164.34 L117.154 1160.08 L125.418 1158.41 L130.093 1158.41 L130.093 1189.04 L137.732 1189.04 L137.732 1192.97 L117.825 1192.97 L117.825 1189.04 Z" fill="#000000" fill-rule="nonzero" fill-opacity="1"></path><path clip-path="url(#clip550)" d="M157.177 1161.49 Q153.566 1161.49 151.737 1165.06 Q149.931 1168.6 149.931 1175.73 Q149.931 1182.83 151.737 1186.4 Q153.566 1189.94 157.177 1189.94 Q160.811 1189.94 162.616 1186.4 Q164.445 1182.83 164.445 1175.73 Q164.445 1168.6 162.616 1165.06 Q160.811 1161.49 157.177 1161.49 M157.177 1157.79 Q162.987 1157.79 166.042 1162.39 Q169.121 1166.98 169.121 1175.73 Q169.121 1184.45 166.042 1189.06 Q162.987 1193.64 157.177 1193.64 Q151.366 1193.64 148.288 1189.06 Q145.232 1184.45 145.232 1175.73 Q145.232 1166.98 148.288 1162.39 Q151.366 1157.79 157.177 1157.79 Z" fill="#000000" fill-rule="nonzero" fill-opacity="1"></path><path clip-path="url(#clip550)" d="M187.338 1161.49 Q183.727 1161.49 181.899 1165.06 Q180.093 1168.6 180.093 1175.73 Q180.093 1182.83 181.899 1186.4 Q183.727 1189.94 187.338 1189.94 Q190.973 1189.94 192.778 1186.4 Q194.607 1182.83 194.607 1175.73 Q194.607 1168.6 192.778 1165.06 Q190.973 1161.49 187.338 1161.49 M187.338 1157.79 Q193.149 1157.79 196.204 1162.39 Q199.283 1166.98 199.283 1175.73 Q199.283 1184.45 196.204 1189.06 Q193.149 1193.64 187.338 1193.64 Q181.528 1193.64 178.45 1189.06 Q175.394 1184.45 175.394 1175.73 Q175.394 1166.98 178.45 1162.39 Q181.528 1157.79 187.338 1157.79 Z" fill="#000000" fill-rule="nonzero" fill-opacity="1"></path><path clip-path="url(#clip550)" d="M121.043 935.178 L137.362 935.178 L137.362 939.114 L115.418 939.114 L115.418 935.178 Q118.08 932.424 122.663 927.794 Q127.269 923.141 128.45 921.799 Q130.695 919.276 131.575 917.54 Q132.478 915.78 132.478 914.091 Q132.478 911.336 130.533 909.6 Q128.612 907.864 125.51 907.864 Q123.311 907.864 120.857 908.628 Q118.427 909.391 115.649 910.942 L115.649 906.22 Q118.473 905.086 120.927 904.507 Q123.38 903.929 125.418 903.929 Q130.788 903.929 133.982 906.614 Q137.177 909.299 137.177 913.79 Q137.177 915.919 136.367 917.841 Q135.579 919.739 133.473 922.331 Q132.894 923.003 129.792 926.22 Q126.691 929.415 121.043 935.178 Z" fill="#000000" fill-rule="nonzero" fill-opacity="1"></path><path clip-path="url(#clip550)" d="M157.177 907.632 Q153.566 907.632 151.737 911.197 Q149.931 914.739 149.931 921.868 Q149.931 928.975 151.737 932.54 Q153.566 936.081 157.177 936.081 Q160.811 936.081 162.616 932.54 Q164.445 928.975 164.445 921.868 Q164.445 914.739 162.616 911.197 Q160.811 907.632 157.177 907.632 M157.177 903.929 Q162.987 903.929 166.042 908.535 Q169.121 913.118 169.121 921.868 Q169.121 930.595 166.042 935.202 Q162.987 939.785 157.177 939.785 Q151.366 939.785 148.288 935.202 Q145.232 930.595 145.232 921.868 Q145.232 913.118 148.288 908.535 Q151.366 903.929 157.177 903.929 Z" fill="#000000" fill-rule="nonzero" fill-opacity="1"></path><path clip-path="url(#clip550)" d="M187.338 907.632 Q183.727 907.632 181.899 911.197 Q180.093 914.739 180.093 921.868 Q180.093 928.975 181.899 932.54 Q183.727 936.081 187.338 936.081 Q190.973 936.081 192.778 932.54 Q194.607 928.975 194.607 921.868 Q194.607 914.739 192.778 911.197 Q190.973 907.632 187.338 907.632 M187.338 903.929 Q193.149 903.929 196.204 908.535 Q199.283 913.118 199.283 921.868 Q199.283 930.595 196.204 935.202 Q193.149 939.785 187.338 939.785 Q181.528 939.785 178.45 935.202 Q175.394 930.595 175.394 921.868 Q175.394 913.118 178.45 908.535 Q181.528 903.929 187.338 903.929 Z" fill="#000000" fill-rule="nonzero" fill-opacity="1"></path><path clip-path="url(#clip550)" d="M131.181 666.62 Q134.538 667.338 136.413 669.606 Q138.311 671.875 138.311 675.208 Q138.311 680.324 134.792 683.125 Q131.274 685.926 124.793 685.926 Q122.617 685.926 120.302 685.486 Q118.01 685.069 115.556 684.213 L115.556 679.699 Q117.501 680.833 119.816 681.412 Q122.13 681.991 124.654 681.991 Q129.052 681.991 131.343 680.254 Q133.658 678.518 133.658 675.208 Q133.658 672.153 131.505 670.44 Q129.376 668.704 125.556 668.704 L121.529 668.704 L121.529 664.861 L125.742 664.861 Q129.191 664.861 131.019 663.495 Q132.848 662.106 132.848 659.514 Q132.848 656.852 130.95 655.44 Q129.075 654.005 125.556 654.005 Q123.635 654.005 121.436 654.421 Q119.237 654.838 116.598 655.718 L116.598 651.551 Q119.26 650.81 121.575 650.44 Q123.913 650.069 125.973 650.069 Q131.297 650.069 134.399 652.5 Q137.501 654.907 137.501 659.028 Q137.501 661.898 135.857 663.889 Q134.214 665.856 131.181 666.62 Z" fill="#000000" fill-rule="nonzero" fill-opacity="1"></path><path clip-path="url(#clip550)" d="M157.177 653.773 Q153.566 653.773 151.737 657.338 Q149.931 660.88 149.931 668.009 Q149.931 675.116 151.737 678.68 Q153.566 682.222 157.177 682.222 Q160.811 682.222 162.616 678.68 Q164.445 675.116 164.445 668.009 Q164.445 660.88 162.616 657.338 Q160.811 653.773 157.177 653.773 M157.177 650.069 Q162.987 650.069 166.042 654.676 Q169.121 659.259 169.121 668.009 Q169.121 676.736 166.042 681.342 Q162.987 685.926 157.177 685.926 Q151.366 685.926 148.288 681.342 Q145.232 676.736 145.232 668.009 Q145.232 659.259 148.288 654.676 Q151.366 650.069 157.177 650.069 Z" fill="#000000" fill-rule="nonzero" fill-opacity="1"></path><path clip-path="url(#clip550)" d="M187.338 653.773 Q183.727 653.773 181.899 657.338 Q180.093 660.88 180.093 668.009 Q180.093 675.116 181.899 678.68 Q183.727 682.222 187.338 682.222 Q190.973 682.222 192.778 678.68 Q194.607 675.116 194.607 668.009 Q194.607 660.88 192.778 657.338 Q190.973 653.773 187.338 653.773 M187.338 650.069 Q193.149 650.069 196.204 654.676 Q199.283 659.259 199.283 668.009 Q199.283 676.736 196.204 681.342 Q193.149 685.926 187.338 685.926 Q181.528 685.926 178.45 681.342 Q175.394 676.736 175.394 668.009 Q175.394 659.259 178.45 654.676 Q181.528 650.069 187.338 650.069 Z" fill="#000000" fill-rule="nonzero" fill-opacity="1"></path><path clip-path="url(#clip550)" d="M129.862 400.909 L118.056 419.358 L129.862 419.358 L129.862 400.909 M128.635 396.835 L134.515 396.835 L134.515 419.358 L139.445 419.358 L139.445 423.247 L134.515 423.247 L134.515 431.395 L129.862 431.395 L129.862 423.247 L114.26 423.247 L114.26 418.733 L128.635 396.835 Z" fill="#000000" fill-rule="nonzero" fill-opacity="1"></path><path clip-path="url(#clip550)" d="M157.177 399.914 Q153.566 399.914 151.737 403.479 Q149.931 407.021 149.931 414.15 Q149.931 421.257 151.737 424.821 Q153.566 428.363 157.177 428.363 Q160.811 428.363 162.616 424.821 Q164.445 421.257 164.445 414.15 Q164.445 407.021 162.616 403.479 Q160.811 399.914 157.177 399.914 M157.177 396.21 Q162.987 396.21 166.042 400.817 Q169.121 405.4 169.121 414.15 Q169.121 422.877 166.042 427.483 Q162.987 432.067 157.177 432.067 Q151.366 432.067 148.288 427.483 Q145.232 422.877 145.232 414.15 Q145.232 405.4 148.288 400.817 Q151.366 396.21 157.177 396.21 Z" fill="#000000" fill-rule="nonzero" fill-opacity="1"></path><path clip-path="url(#clip550)" d="M187.338 399.914 Q183.727 399.914 181.899 403.479 Q180.093 407.021 180.093 414.15 Q180.093 421.257 181.899 424.821 Q183.727 428.363 187.338 428.363 Q190.973 428.363 192.778 424.821 Q194.607 421.257 194.607 414.15 Q194.607 407.021 192.778 403.479 Q190.973 399.914 187.338 399.914 M187.338 396.21 Q193.149 396.21 196.204 400.817 Q199.283 405.4 199.283 414.15 Q199.283 422.877 196.204 427.483 Q193.149 432.067 187.338 432.067 Q181.528 432.067 178.45 427.483 Q175.394 422.877 175.394 414.15 Q175.394 405.4 178.45 400.817 Q181.528 396.21 187.338 396.21 Z" fill="#000000" fill-rule="nonzero" fill-opacity="1"></path><path clip-path="url(#clip550)" d="M117.061 142.976 L135.417 142.976 L135.417 146.911 L121.343 146.911 L121.343 155.384 Q122.362 155.036 123.38 154.874 Q124.399 154.689 125.418 154.689 Q131.205 154.689 134.584 157.86 Q137.964 161.032 137.964 166.448 Q137.964 172.027 134.492 175.129 Q131.019 178.208 124.7 178.208 Q122.524 178.208 120.255 177.837 Q118.01 177.467 115.603 176.726 L115.603 172.027 Q117.686 173.161 119.908 173.717 Q122.13 174.272 124.607 174.272 Q128.612 174.272 130.95 172.166 Q133.288 170.059 133.288 166.448 Q133.288 162.837 130.95 160.731 Q128.612 158.624 124.607 158.624 Q122.732 158.624 120.857 159.041 Q119.006 159.458 117.061 160.337 L117.061 142.976 Z" fill="#000000" fill-rule="nonzero" fill-opacity="1"></path><path clip-path="url(#clip550)" d="M157.177 146.055 Q153.566 146.055 151.737 149.62 Q149.931 153.161 149.931 160.291 Q149.931 167.397 151.737 170.962 Q153.566 174.504 157.177 174.504 Q160.811 174.504 162.616 170.962 Q164.445 167.397 164.445 160.291 Q164.445 153.161 162.616 149.62 Q160.811 146.055 157.177 146.055 M157.177 142.351 Q162.987 142.351 166.042 146.958 Q169.121 151.541 169.121 160.291 Q169.121 169.018 166.042 173.624 Q162.987 178.208 157.177 178.208 Q151.366 178.208 148.288 173.624 Q145.232 169.018 145.232 160.291 Q145.232 151.541 148.288 146.958 Q151.366 142.351 157.177 142.351 Z" fill="#000000" fill-rule="nonzero" fill-opacity="1"></path><path clip-path="url(#clip550)" d="M187.338 146.055 Q183.727 146.055 181.899 149.62 Q180.093 153.161 180.093 160.291 Q180.093 167.397 181.899 170.962 Q183.727 174.504 187.338 174.504 Q190.973 174.504 192.778 170.962 Q194.607 167.397 194.607 160.291 Q194.607 153.161 192.778 149.62 Q190.973 146.055 187.338 146.055 M187.338 142.351 Q193.149 142.351 196.204 146.958 Q199.283 151.541 199.283 160.291 Q199.283 169.018 196.204 173.624 Q193.149 178.208 187.338 178.208 Q181.528 178.208 178.45 173.624 Q175.394 169.018 175.394 160.291 Q175.394 151.541 178.45 146.958 Q181.528 142.351 187.338 142.351 Z" fill="#000000" fill-rule="nonzero" fill-opacity="1"></path><path clip-path="url(#clip550)" d="M29.4065 971.968 L34.9447 971.968 Q33.6716 974.45 33.035 977.124 Q32.3984 979.798 32.3984 982.662 Q32.3984 987.023 33.7352 989.219 Q35.072 991.383 37.7456 991.383 Q39.7826 991.383 40.9603 989.824 Q42.1061 988.264 43.1565 983.553 L43.6021 981.548 Q44.9389 975.31 47.3897 972.7 Q49.8086 970.058 54.1691 970.058 Q59.1344 970.058 62.0308 974.005 Q64.9272 977.92 64.9272 984.795 Q64.9272 987.659 64.3543 990.779 Q63.8132 993.866 62.6992 997.303 L56.6518 997.303 Q58.3387 994.057 59.198 990.906 Q60.0256 987.755 60.0256 984.667 Q60.0256 980.53 58.6251 978.302 Q57.1929 976.074 54.6147 976.074 Q52.2276 976.074 50.9545 977.697 Q49.6813 979.288 48.5037 984.731 L48.0262 986.768 Q46.8804 992.211 44.5251 994.63 Q42.138 997.049 38.0002 997.049 Q32.9713 997.049 30.2341 993.484 Q27.4968 989.919 27.4968 983.362 Q27.4968 980.116 27.9743 977.251 Q28.4517 974.387 29.4065 971.968 M23.8365 985.527 L11.869 993.325 L11.869 988.901 L19.667 983.172 L11.869 977.442 L11.869 973.018 L23.8365 980.816 L23.8365 985.527 M27.4968 983.299 L27.4968 983.299 Z" fill="#000000" fill-rule="nonzero" fill-opacity="1"></path><path clip-path="url(#clip550)" d="M18.2347 954.94 L28.3562 954.94 L28.3562 942.877 L32.9077 942.877 L32.9077 954.94 L52.2594 954.94 Q56.6199 954.94 57.8613 953.762 Q59.1026 952.552 59.1026 948.892 L59.1026 942.877 L64.0042 942.877 L64.0042 948.892 Q64.0042 955.672 61.4897 958.25 Q58.9434 960.828 52.2594 960.828 L32.9077 960.828 L32.9077 965.125 L28.3562 965.125 L28.3562 960.828 L18.2347 960.828 L18.2347 954.94 Z" fill="#000000" fill-rule="nonzero" fill-opacity="1"></path><path clip-path="url(#clip550)" d="M44.7161 904.682 L47.5806 904.682 L47.5806 931.609 Q53.6281 931.227 56.8109 927.981 Q59.9619 924.702 59.9619 918.878 Q59.9619 915.504 59.1344 912.353 Q58.3069 909.17 56.6518 906.051 L62.1899 906.051 Q63.5267 909.202 64.227 912.512 Q64.9272 915.822 64.9272 919.228 Q64.9272 927.758 59.9619 932.755 Q54.9967 937.72 46.5303 937.72 Q37.7774 937.72 32.6531 933.01 Q27.4968 928.267 27.4968 920.246 Q27.4968 913.053 32.1438 908.884 Q36.7589 904.682 44.7161 904.682 M42.9973 910.539 Q38.1912 910.602 35.3266 913.244 Q32.4621 915.854 32.4621 920.183 Q32.4621 925.084 35.2312 928.044 Q38.0002 930.973 43.0292 931.418 L42.9973 910.539 Z" fill="#000000" fill-rule="nonzero" fill-opacity="1"></path><path clip-path="url(#clip550)" d="M28.3562 899.271 L28.3562 893.065 L58.275 881.925 L28.3562 870.785 L28.3562 864.578 L64.0042 877.946 L64.0042 885.904 L28.3562 899.271 Z" fill="#000000" fill-rule="nonzero" fill-opacity="1"></path><path clip-path="url(#clip550)" d="M28.3562 856.494 L28.3562 850.637 L64.0042 850.637 L64.0042 856.494 L28.3562 856.494 M14.479 856.494 L14.479 850.637 L21.895 850.637 L21.895 856.494 L14.479 856.494 Z" fill="#000000" fill-rule="nonzero" fill-opacity="1"></path><path clip-path="url(#clip550)" d="M14.479 838.384 L14.479 832.527 L64.0042 832.527 L64.0042 838.384 L14.479 838.384 Z" fill="#000000" fill-rule="nonzero" fill-opacity="1"></path><path clip-path="url(#clip550)" d="M32.4621 806.459 Q32.4621 811.17 36.1542 813.907 Q39.8145 816.645 46.212 816.645 Q52.6095 816.645 56.3017 813.939 Q59.9619 811.202 59.9619 806.459 Q59.9619 801.781 56.2698 799.043 Q52.5777 796.306 46.212 796.306 Q39.8781 796.306 36.186 799.043 Q32.4621 801.781 32.4621 806.459 M27.4968 806.459 Q27.4968 798.821 32.4621 794.46 Q37.4273 790.1 46.212 790.1 Q54.9649 790.1 59.9619 794.46 Q64.9272 798.821 64.9272 806.459 Q64.9272 814.13 59.9619 818.491 Q54.9649 822.819 46.212 822.819 Q37.4273 822.819 32.4621 818.491 Q27.4968 814.13 27.4968 806.459 Z" fill="#000000" fill-rule="nonzero" fill-opacity="1"></path><path clip-path="url(#clip550)" d="M28.3562 759.672 L28.3562 753.815 L64.0042 753.815 L64.0042 759.672 L28.3562 759.672 M14.479 759.672 L14.479 753.815 L21.895 753.815 L21.895 759.672 L14.479 759.672 Z" fill="#000000" fill-rule="nonzero" fill-opacity="1"></path><path clip-path="url(#clip550)" d="M18.2347 735.768 L28.3562 735.768 L28.3562 723.705 L32.9077 723.705 L32.9077 735.768 L52.2594 735.768 Q56.6199 735.768 57.8613 734.591 Q59.1026 733.381 59.1026 729.721 L59.1026 723.705 L64.0042 723.705 L64.0042 729.721 Q64.0042 736.5 61.4897 739.078 Q58.9434 741.657 52.2594 741.657 L32.9077 741.657 L32.9077 745.953 L28.3562 745.953 L28.3562 741.657 L18.2347 741.657 L18.2347 735.768 Z" fill="#000000" fill-rule="nonzero" fill-opacity="1"></path><path clip-path="url(#clip550)" d="M44.7161 685.511 L47.5806 685.511 L47.5806 712.438 Q53.6281 712.056 56.8109 708.81 Q59.9619 705.531 59.9619 699.707 Q59.9619 696.333 59.1344 693.182 Q58.3069 689.999 56.6518 686.88 L62.1899 686.88 Q63.5267 690.031 64.227 693.341 Q64.9272 696.651 64.9272 700.057 Q64.9272 708.587 59.9619 713.584 Q54.9967 718.549 46.5303 718.549 Q37.7774 718.549 32.6531 713.838 Q27.4968 709.096 27.4968 701.075 Q27.4968 693.882 32.1438 689.712 Q36.7589 685.511 44.7161 685.511 M42.9973 691.368 Q38.1912 691.431 35.3266 694.073 Q32.4621 696.683 32.4621 701.012 Q32.4621 705.913 35.2312 708.873 Q38.0002 711.801 43.0292 712.247 L42.9973 691.368 Z" fill="#000000" fill-rule="nonzero" fill-opacity="1"></path><path clip-path="url(#clip550)" d="M33.8307 655.242 Q33.2578 656.229 33.0032 657.406 Q32.7167 658.552 32.7167 659.953 Q32.7167 664.918 35.9632 667.592 Q39.1779 670.233 45.2253 670.233 L64.0042 670.233 L64.0042 676.122 L28.3562 676.122 L28.3562 670.233 L33.8944 670.233 Q30.6479 668.387 29.0883 665.427 Q27.4968 662.467 27.4968 658.234 Q27.4968 657.629 27.5923 656.897 Q27.656 656.165 27.8151 655.274 L33.8307 655.242 Z" fill="#000000" fill-rule="nonzero" fill-opacity="1"></path><path clip-path="url(#clip550)" d="M46.0847 632.898 Q46.0847 639.996 47.7079 642.734 Q49.3312 645.471 53.2461 645.471 Q56.3653 645.471 58.2114 643.434 Q60.0256 641.365 60.0256 637.832 Q60.0256 632.962 56.5881 630.034 Q53.1188 627.074 47.3897 627.074 L46.0847 627.074 L46.0847 632.898 M43.6657 621.217 L64.0042 621.217 L64.0042 627.074 L58.5933 627.074 Q61.8398 629.079 63.3994 632.071 Q64.9272 635.063 64.9272 639.392 Q64.9272 644.866 61.8716 648.113 Q58.7843 651.327 53.6281 651.327 Q47.6125 651.327 44.5569 647.317 Q41.5014 643.275 41.5014 635.286 L41.5014 627.074 L40.9285 627.074 Q36.8862 627.074 34.6901 629.747 Q32.4621 632.389 32.4621 637.195 Q32.4621 640.251 33.1941 643.147 Q33.9262 646.044 35.3903 648.717 L29.9795 648.717 Q28.7381 645.503 28.1334 642.479 Q27.4968 639.455 27.4968 636.591 Q27.4968 628.856 31.5072 625.037 Q35.5176 621.217 43.6657 621.217 Z" fill="#000000" fill-rule="nonzero" fill-opacity="1"></path><path clip-path="url(#clip550)" d="M29.7248 583.501 L35.1993 583.501 Q33.8307 585.983 33.1623 588.498 Q32.4621 590.98 32.4621 593.527 Q32.4621 599.224 36.0905 602.375 Q39.6872 605.526 46.212 605.526 Q52.7369 605.526 56.3653 602.375 Q59.9619 599.224 59.9619 593.527 Q59.9619 590.98 59.2935 588.498 Q58.5933 585.983 57.2247 583.501 L62.6355 583.501 Q63.7814 585.951 64.3543 588.593 Q64.9272 591.203 64.9272 594.163 Q64.9272 602.216 59.8664 606.958 Q54.8057 611.701 46.212 611.701 Q37.491 611.701 32.4939 606.926 Q27.4968 602.12 27.4968 593.781 Q27.4968 591.076 28.0697 588.498 Q28.6108 585.92 29.7248 583.501 Z" fill="#000000" fill-rule="nonzero" fill-opacity="1"></path><path clip-path="url(#clip550)" d="M28.3562 573.315 L28.3562 567.459 L64.0042 567.459 L64.0042 573.315 L28.3562 573.315 M14.479 573.315 L14.479 567.459 L21.895 567.459 L21.895 573.315 L14.479 573.315 Z" fill="#000000" fill-rule="nonzero" fill-opacity="1"></path><path clip-path="url(#clip550)" d="M28.3562 555.205 L28.3562 549.349 L64.6407 549.349 Q71.452 549.349 74.5076 551.959 Q77.5631 554.537 77.5631 560.298 L77.5631 562.526 L72.5979 562.526 L72.5979 560.966 Q72.5979 557.624 71.0383 556.415 Q69.5105 555.205 64.6407 555.205 L28.3562 555.205 M14.479 555.205 L14.479 549.349 L21.895 549.349 L21.895 555.205 L14.479 555.205 Z" fill="#000000" fill-rule="nonzero" fill-opacity="1"></path><path clip-path="url(#clip550)" d="M462.348 17.6457 Q453.436 17.6457 448.17 24.2892 Q442.945 30.9327 442.945 42.3968 Q442.945 53.8203 448.17 60.4638 Q453.436 67.1073 462.348 67.1073 Q471.26 67.1073 476.446 60.4638 Q481.671 53.8203 481.671 42.3968 Q481.671 30.9327 476.446 24.2892 Q471.26 17.6457 462.348 17.6457 M462.348 11.0023 Q475.068 11.0023 482.684 19.5497 Q490.3 28.0566 490.3 42.3968 Q490.3 56.6965 482.684 65.2439 Q475.068 73.7508 462.348 73.7508 Q449.588 73.7508 441.932 65.2439 Q434.316 56.737 434.316 42.3968 Q434.316 28.0566 441.932 19.5497 Q449.588 11.0023 462.348 11.0023 Z" fill="#000000" fill-rule="nonzero" fill-opacity="1"></path><path clip-path="url(#clip550)" d="M532.632 34.0924 L532.632 9.54393 L540.085 9.54393 L540.085 72.576 L532.632 72.576 L532.632 65.7705 Q530.282 69.8214 526.677 71.8063 Q523.112 73.7508 518.089 73.7508 Q509.866 73.7508 504.68 67.1883 Q499.536 60.6258 499.536 49.9314 Q499.536 39.2371 504.68 32.6746 Q509.866 26.1121 518.089 26.1121 Q523.112 26.1121 526.677 28.0971 Q530.282 30.0415 532.632 34.0924 M507.233 49.9314 Q507.233 58.1548 510.595 62.8538 Q513.998 67.5124 519.912 67.5124 Q525.826 67.5124 529.229 62.8538 Q532.632 58.1548 532.632 49.9314 Q532.632 41.7081 529.229 37.0496 Q525.826 32.3505 519.912 32.3505 Q513.998 32.3505 510.595 37.0496 Q507.233 41.7081 507.233 49.9314 Z" fill="#000000" fill-rule="nonzero" fill-opacity="1"></path><path clip-path="url(#clip550)" d="M550.091 27.2059 L557.99 27.2059 L572.169 65.2844 L586.347 27.2059 L594.246 27.2059 L577.232 72.576 L567.105 72.576 L550.091 27.2059 Z" fill="#000000" fill-rule="nonzero" fill-opacity="1"></path><path clip-path="url(#clip550)" d="M604.535 27.2059 L611.989 27.2059 L611.989 72.576 L604.535 72.576 L604.535 27.2059 M604.535 9.54393 L611.989 9.54393 L611.989 18.9825 L604.535 18.9825 L604.535 9.54393 Z" fill="#000000" fill-rule="nonzero" fill-opacity="1"></path><path clip-path="url(#clip550)" d="M656.508 28.5427 L656.508 35.5912 Q653.349 33.9709 649.946 33.1607 Q646.543 32.3505 642.897 32.3505 Q637.348 32.3505 634.552 34.0519 Q631.798 35.7533 631.798 39.156 Q631.798 41.7486 633.783 43.2475 Q635.768 44.7058 641.763 46.0426 L644.315 46.6097 Q652.255 48.3111 655.577 51.4303 Q658.939 54.509 658.939 60.0587 Q658.939 66.3781 653.916 70.0644 Q648.933 73.7508 640.183 73.7508 Q636.537 73.7508 632.567 73.0216 Q628.638 72.3329 624.263 70.9151 L624.263 63.2184 Q628.395 65.3654 632.405 66.4591 Q636.416 67.5124 640.345 67.5124 Q645.611 67.5124 648.447 65.73 Q651.283 63.9071 651.283 60.6258 Q651.283 57.5877 649.217 55.9673 Q647.191 54.3469 640.264 52.8481 L637.672 52.2405 Q630.745 50.7821 627.666 47.7845 Q624.587 44.7463 624.587 39.4801 Q624.587 33.0797 629.124 29.5959 Q633.661 26.1121 642.006 26.1121 Q646.138 26.1121 649.784 26.7198 Q653.43 27.3274 656.508 28.5427 Z" fill="#000000" fill-rule="nonzero" fill-opacity="1"></path><path clip-path="url(#clip550)" d="M708.522 45.1919 L708.522 72.576 L701.068 72.576 L701.068 45.4349 Q701.068 38.994 698.557 35.7938 Q696.045 32.5936 691.022 32.5936 Q684.986 32.5936 681.502 36.4419 Q678.019 40.2903 678.019 46.9338 L678.019 72.576 L670.524 72.576 L670.524 27.2059 L678.019 27.2059 L678.019 34.2544 Q680.692 30.163 684.298 28.1376 Q687.943 26.1121 692.683 26.1121 Q700.501 26.1121 704.512 30.9732 Q708.522 35.7938 708.522 45.1919 Z" fill="#000000" fill-rule="nonzero" fill-opacity="1"></path><path clip-path="url(#clip550)" d="M740.97 32.4315 Q734.974 32.4315 731.491 37.1306 Q728.007 41.7891 728.007 49.9314 Q728.007 58.0738 731.45 62.7728 Q734.934 67.4314 740.97 67.4314 Q746.925 67.4314 750.408 62.7323 Q753.892 58.0333 753.892 49.9314 Q753.892 41.8701 750.408 37.1711 Q746.925 32.4315 740.97 32.4315 M740.97 26.1121 Q750.692 26.1121 756.242 32.4315 Q761.791 38.7509 761.791 49.9314 Q761.791 61.0714 756.242 67.4314 Q750.692 73.7508 740.97 73.7508 Q731.207 73.7508 725.657 67.4314 Q720.148 61.0714 720.148 49.9314 Q720.148 38.7509 725.657 32.4315 Q731.207 26.1121 740.97 26.1121 Z" fill="#000000" fill-rule="nonzero" fill-opacity="1"></path><path clip-path="url(#clip550)" d="M803.07 28.5427 L803.07 35.5912 Q799.91 33.9709 796.508 33.1607 Q793.105 32.3505 789.459 32.3505 Q783.909 32.3505 781.114 34.0519 Q778.36 35.7533 778.36 39.156 Q778.36 41.7486 780.344 43.2475 Q782.329 44.7058 788.325 46.0426 L790.877 46.6097 Q798.817 48.3111 802.138 51.4303 Q805.501 54.509 805.501 60.0587 Q805.501 66.3781 800.477 70.0644 Q795.495 73.7508 786.745 73.7508 Q783.099 73.7508 779.129 73.0216 Q775.2 72.3329 770.825 70.9151 L770.825 63.2184 Q774.957 65.3654 778.967 66.4591 Q782.978 67.5124 786.907 67.5124 Q792.173 67.5124 795.009 65.73 Q797.844 63.9071 797.844 60.6258 Q797.844 57.5877 795.778 55.9673 Q793.753 54.3469 786.826 52.8481 L784.233 52.2405 Q777.306 50.7821 774.228 47.7845 Q771.149 44.7463 771.149 39.4801 Q771.149 33.0797 775.686 29.5959 Q780.223 26.1121 788.568 26.1121 Q792.7 26.1121 796.346 26.7198 Q799.991 27.3274 803.07 28.5427 Z" fill="#000000" fill-rule="nonzero" fill-opacity="1"></path><path clip-path="url(#clip550)" d="M824.742 14.324 L824.742 27.2059 L840.095 27.2059 L840.095 32.9987 L824.742 32.9987 L824.742 57.6282 Q824.742 63.1779 826.241 64.7578 Q827.781 66.3376 832.439 66.3376 L840.095 66.3376 L840.095 72.576 L832.439 72.576 Q823.811 72.576 820.529 69.3758 Q817.248 66.1351 817.248 57.6282 L817.248 32.9987 L811.779 32.9987 L811.779 27.2059 L817.248 27.2059 L817.248 14.324 L824.742 14.324 Z" fill="#000000" fill-rule="nonzero" fill-opacity="1"></path><path clip-path="url(#clip550)" d="M913.984 45.1919 L913.984 72.576 L906.53 72.576 L906.53 45.4349 Q906.53 38.994 904.019 35.7938 Q901.507 32.5936 896.484 32.5936 Q890.448 32.5936 886.964 36.4419 Q883.48 40.2903 883.48 46.9338 L883.48 72.576 L875.986 72.576 L875.986 9.54393 L883.48 9.54393 L883.48 34.2544 Q886.154 30.163 889.759 28.1376 Q893.405 26.1121 898.145 26.1121 Q905.963 26.1121 909.973 30.9732 Q913.984 35.7938 913.984 45.1919 Z" fill="#000000" fill-rule="nonzero" fill-opacity="1"></path><path clip-path="url(#clip550)" d="M928.851 27.2059 L936.304 27.2059 L936.304 72.576 L928.851 72.576 L928.851 27.2059 M928.851 9.54393 L936.304 9.54393 L936.304 18.9825 L928.851 18.9825 L928.851 9.54393 Z" fill="#000000" fill-rule="nonzero" fill-opacity="1"></path><path clip-path="url(#clip550)" d="M959.273 14.324 L959.273 27.2059 L974.626 27.2059 L974.626 32.9987 L959.273 32.9987 L959.273 57.6282 Q959.273 63.1779 960.772 64.7578 Q962.311 66.3376 966.97 66.3376 L974.626 66.3376 L974.626 72.576 L966.97 72.576 Q958.341 72.576 955.06 69.3758 Q951.779 66.1351 951.779 57.6282 L951.779 32.9987 L946.31 32.9987 L946.31 27.2059 L951.779 27.2059 L951.779 14.324 L959.273 14.324 Z" fill="#000000" fill-rule="nonzero" fill-opacity="1"></path><path clip-path="url(#clip550)" d="M1010.72 34.1734 Q1009.46 33.4443 1007.96 33.1202 Q1006.51 32.7556 1004.72 32.7556 Q998.405 32.7556 995.002 36.8875 Q991.64 40.9789 991.64 48.6757 L991.64 72.576 L984.145 72.576 L984.145 27.2059 L991.64 27.2059 L991.64 34.2544 Q993.989 30.1225 997.756 28.1376 Q1001.52 26.1121 1006.91 26.1121 Q1007.68 26.1121 1008.61 26.2337 Q1009.54 26.3147 1010.68 26.5172 L1010.72 34.1734 Z" fill="#000000" fill-rule="nonzero" fill-opacity="1"></path><path clip-path="url(#clip550)" d="M1034.3 32.4315 Q1028.3 32.4315 1024.82 37.1306 Q1021.33 41.7891 1021.33 49.9314 Q1021.33 58.0738 1024.78 62.7728 Q1028.26 67.4314 1034.3 67.4314 Q1040.25 67.4314 1043.73 62.7323 Q1047.22 58.0333 1047.22 49.9314 Q1047.22 41.8701 1043.73 37.1711 Q1040.25 32.4315 1034.3 32.4315 M1034.3 26.1121 Q1044.02 26.1121 1049.57 32.4315 Q1055.12 38.7509 1055.12 49.9314 Q1055.12 61.0714 1049.57 67.4314 Q1044.02 73.7508 1034.3 73.7508 Q1024.53 73.7508 1018.98 67.4314 Q1013.47 61.0714 1013.47 49.9314 Q1013.47 38.7509 1018.98 32.4315 Q1024.53 26.1121 1034.3 26.1121 Z" fill="#000000" fill-rule="nonzero" fill-opacity="1"></path><path clip-path="url(#clip550)" d="M1096.4 28.5427 L1096.4 35.5912 Q1093.24 33.9709 1089.83 33.1607 Q1086.43 32.3505 1082.78 32.3505 Q1077.24 32.3505 1074.44 34.0519 Q1071.69 35.7533 1071.69 39.156 Q1071.69 41.7486 1073.67 43.2475 Q1075.66 44.7058 1081.65 46.0426 L1084.2 46.6097 Q1092.14 48.3111 1095.46 51.4303 Q1098.83 54.509 1098.83 60.0587 Q1098.83 66.3781 1093.8 70.0644 Q1088.82 73.7508 1080.07 73.7508 Q1076.43 73.7508 1072.46 73.0216 Q1068.53 72.3329 1064.15 70.9151 L1064.15 63.2184 Q1068.28 65.3654 1072.29 66.4591 Q1076.3 67.5124 1080.23 67.5124 Q1085.5 67.5124 1088.33 65.73 Q1091.17 63.9071 1091.17 60.6258 Q1091.17 57.5877 1089.1 55.9673 Q1087.08 54.3469 1080.15 52.8481 L1077.56 52.2405 Q1070.63 50.7821 1067.55 47.7845 Q1064.47 44.7463 1064.47 39.4801 Q1064.47 33.0797 1069.01 29.5959 Q1073.55 26.1121 1081.89 26.1121 Q1086.03 26.1121 1089.67 26.7198 Q1093.32 27.3274 1096.4 28.5427 Z" fill="#000000" fill-rule="nonzero" fill-opacity="1"></path><path clip-path="url(#clip550)" d="M1118.07 14.324 L1118.07 27.2059 L1133.42 27.2059 L1133.42 32.9987 L1118.07 32.9987 L1118.07 57.6282 Q1118.07 63.1779 1119.57 64.7578 Q1121.11 66.3376 1125.77 66.3376 L1133.42 66.3376 L1133.42 72.576 L1125.77 72.576 Q1117.14 72.576 1113.86 69.3758 Q1110.57 66.1351 1110.57 57.6282 L1110.57 32.9987 L1105.11 32.9987 L1105.11 27.2059 L1110.57 27.2059 L1110.57 14.324 L1118.07 14.324 Z" fill="#000000" fill-rule="nonzero" fill-opacity="1"></path><path clip-path="url(#clip550)" d="M1143.22 27.2059 L1150.68 27.2059 L1150.68 72.576 L1143.22 72.576 L1143.22 27.2059 M1143.22 9.54393 L1150.68 9.54393 L1150.68 18.9825 L1143.22 18.9825 L1143.22 9.54393 Z" fill="#000000" fill-rule="nonzero" fill-opacity="1"></path><path clip-path="url(#clip550)" d="M1192.36 9.54393 L1199.86 9.54393 L1199.86 46.7717 L1222.1 27.2059 L1231.62 27.2059 L1207.55 48.4326 L1232.63 72.576 L1222.91 72.576 L1199.86 50.4176 L1199.86 72.576 L1192.36 72.576 L1192.36 9.54393 Z" fill="#000000" fill-rule="nonzero" fill-opacity="1"></path><path clip-path="url(#clip550)" d="M1255.31 32.4315 Q1249.32 32.4315 1245.83 37.1306 Q1242.35 41.7891 1242.35 49.9314 Q1242.35 58.0738 1245.79 62.7728 Q1249.28 67.4314 1255.31 67.4314 Q1261.27 67.4314 1264.75 62.7323 Q1268.24 58.0333 1268.24 49.9314 Q1268.24 41.8701 1264.75 37.1711 Q1261.27 32.4315 1255.31 32.4315 M1255.31 26.1121 Q1265.04 26.1121 1270.58 32.4315 Q1276.13 38.7509 1276.13 49.9314 Q1276.13 61.0714 1270.58 67.4314 Q1265.04 73.7508 1255.31 73.7508 Q1245.55 73.7508 1240 67.4314 Q1234.49 61.0714 1234.49 49.9314 Q1234.49 38.7509 1240 32.4315 Q1245.55 26.1121 1255.31 26.1121 Z" fill="#000000" fill-rule="nonzero" fill-opacity="1"></path><path clip-path="url(#clip550)" d="M1326.2 45.1919 L1326.2 72.576 L1318.75 72.576 L1318.75 45.4349 Q1318.75 38.994 1316.24 35.7938 Q1313.73 32.5936 1308.7 32.5936 Q1302.67 32.5936 1299.18 36.4419 Q1295.7 40.2903 1295.7 46.9338 L1295.7 72.576 L1288.21 72.576 L1288.21 27.2059 L1295.7 27.2059 L1295.7 34.2544 Q1298.37 30.163 1301.98 28.1376 Q1305.63 26.1121 1310.36 26.1121 Q1318.18 26.1121 1322.19 30.9732 Q1326.2 35.7938 1326.2 45.1919 Z" fill="#000000" fill-rule="nonzero" fill-opacity="1"></path><path clip-path="url(#clip550)" d="M1335.72 27.2059 L1343.62 27.2059 L1357.8 65.2844 L1371.98 27.2059 L1379.88 27.2059 L1362.86 72.576 L1352.74 72.576 L1335.72 27.2059 Z" fill="#000000" fill-rule="nonzero" fill-opacity="1"></path><path clip-path="url(#clip550)" d="M1428.98 48.0275 L1428.98 51.6733 L1394.7 51.6733 Q1395.19 59.3701 1399.32 63.421 Q1403.5 67.4314 1410.91 67.4314 Q1415.2 67.4314 1419.21 66.3781 Q1423.26 65.3249 1427.23 63.2184 L1427.23 70.267 Q1423.22 71.9684 1419.01 72.8596 Q1414.8 73.7508 1410.46 73.7508 Q1399.61 73.7508 1393.25 67.4314 Q1386.93 61.1119 1386.93 50.3365 Q1386.93 39.1965 1392.92 32.6746 Q1398.96 26.1121 1409.17 26.1121 Q1418.32 26.1121 1423.63 32.0264 Q1428.98 37.9003 1428.98 48.0275 M1421.52 45.84 Q1421.44 39.7232 1418.08 36.0774 Q1414.76 32.4315 1409.25 32.4315 Q1403.01 32.4315 1399.24 35.9558 Q1395.51 39.4801 1394.95 45.8805 L1421.52 45.84 Z" fill="#000000" fill-rule="nonzero" fill-opacity="1"></path><path clip-path="url(#clip550)" d="M1467.5 34.1734 Q1466.24 33.4443 1464.74 33.1202 Q1463.29 32.7556 1461.5 32.7556 Q1455.18 32.7556 1451.78 36.8875 Q1448.42 40.9789 1448.42 48.6757 L1448.42 72.576 L1440.93 72.576 L1440.93 27.2059 L1448.42 27.2059 L1448.42 34.2544 Q1450.77 30.1225 1454.54 28.1376 Q1458.3 26.1121 1463.69 26.1121 Q1464.46 26.1121 1465.39 26.2337 Q1466.32 26.3147 1467.46 26.5172 L1467.5 34.1734 Z" fill="#000000" fill-rule="nonzero" fill-opacity="1"></path><path clip-path="url(#clip550)" d="M1503.71 49.3643 Q1503.71 41.2625 1500.35 36.8065 Q1497.03 32.3505 1490.99 32.3505 Q1485 32.3505 1481.64 36.8065 Q1478.32 41.2625 1478.32 49.3643 Q1478.32 57.4256 1481.64 61.8816 Q1485 66.3376 1490.99 66.3376 Q1497.03 66.3376 1500.35 61.8816 Q1503.71 57.4256 1503.71 49.3643 M1511.17 66.9452 Q1511.17 78.5308 1506.02 84.1616 Q1500.88 89.8329 1490.27 89.8329 Q1486.34 89.8329 1482.85 89.2252 Q1479.37 88.6581 1476.09 87.4428 L1476.09 80.1917 Q1479.37 81.9741 1482.57 82.8248 Q1485.77 83.6755 1489.09 83.6755 Q1496.42 83.6755 1500.07 79.8271 Q1503.71 76.0193 1503.71 68.282 L1503.71 64.5957 Q1501.41 68.6061 1497.8 70.5911 Q1494.19 72.576 1489.17 72.576 Q1480.83 72.576 1475.72 66.2161 Q1470.62 59.8562 1470.62 49.3643 Q1470.62 38.832 1475.72 32.472 Q1480.83 26.1121 1489.17 26.1121 Q1494.19 26.1121 1497.8 28.0971 Q1501.41 30.082 1503.71 34.0924 L1503.71 27.2059 L1511.17 27.2059 L1511.17 66.9452 Z" fill="#000000" fill-rule="nonzero" fill-opacity="1"></path><path clip-path="url(#clip550)" d="M1565.33 48.0275 L1565.33 51.6733 L1531.06 51.6733 Q1531.54 59.3701 1535.68 63.421 Q1539.85 67.4314 1547.26 67.4314 Q1551.56 67.4314 1555.57 66.3781 Q1559.62 65.3249 1563.59 63.2184 L1563.59 70.267 Q1559.58 71.9684 1555.36 72.8596 Q1551.15 73.7508 1546.82 73.7508 Q1535.96 73.7508 1529.6 67.4314 Q1523.28 61.1119 1523.28 50.3365 Q1523.28 39.1965 1529.28 32.6746 Q1535.31 26.1121 1545.52 26.1121 Q1554.67 26.1121 1559.98 32.0264 Q1565.33 37.9003 1565.33 48.0275 M1557.88 45.84 Q1557.79 39.7232 1554.43 36.0774 Q1551.11 32.4315 1545.6 32.4315 Q1539.36 32.4315 1535.6 35.9558 Q1531.87 39.4801 1531.3 45.8805 L1557.88 45.84 Z" fill="#000000" fill-rule="nonzero" fill-opacity="1"></path><path clip-path="url(#clip550)" d="M1615.28 45.1919 L1615.28 72.576 L1607.82 72.576 L1607.82 45.4349 Q1607.82 38.994 1605.31 35.7938 Q1602.8 32.5936 1597.78 32.5936 Q1591.74 32.5936 1588.26 36.4419 Q1584.77 40.2903 1584.77 46.9338 L1584.77 72.576 L1577.28 72.576 L1577.28 27.2059 L1584.77 27.2059 L1584.77 34.2544 Q1587.45 30.163 1591.05 28.1376 Q1594.7 26.1121 1599.44 26.1121 Q1607.26 26.1121 1611.27 30.9732 Q1615.28 35.7938 1615.28 45.1919 Z" fill="#000000" fill-rule="nonzero" fill-opacity="1"></path><path clip-path="url(#clip550)" d="M1662.79 28.9478 L1662.79 35.9153 Q1659.63 34.1734 1656.43 33.3227 Q1653.27 32.4315 1650.03 32.4315 Q1642.78 32.4315 1638.77 37.0496 Q1634.76 41.6271 1634.76 49.9314 Q1634.76 58.2358 1638.77 62.8538 Q1642.78 67.4314 1650.03 67.4314 Q1653.27 67.4314 1656.43 66.5807 Q1659.63 65.6895 1662.79 63.9476 L1662.79 70.8341 Q1659.67 72.2924 1656.31 73.0216 Q1652.99 73.7508 1649.22 73.7508 Q1638.97 73.7508 1632.94 67.3098 Q1626.9 60.8689 1626.9 49.9314 Q1626.9 38.832 1632.98 32.472 Q1639.1 26.1121 1649.71 26.1121 Q1653.15 26.1121 1656.43 26.8413 Q1659.71 27.5299 1662.79 28.9478 Z" fill="#000000" fill-rule="nonzero" fill-opacity="1"></path><path clip-path="url(#clip550)" d="M1714.56 48.0275 L1714.56 51.6733 L1680.29 51.6733 Q1680.78 59.3701 1684.91 63.421 Q1689.08 67.4314 1696.5 67.4314 Q1700.79 67.4314 1704.8 66.3781 Q1708.85 65.3249 1712.82 63.2184 L1712.82 70.267 Q1708.81 71.9684 1704.6 72.8596 Q1700.39 73.7508 1696.05 73.7508 Q1685.19 73.7508 1678.84 67.4314 Q1672.52 61.1119 1672.52 50.3365 Q1672.52 39.1965 1678.51 32.6746 Q1684.55 26.1121 1694.76 26.1121 Q1703.91 26.1121 1709.22 32.0264 Q1714.56 37.9003 1714.56 48.0275 M1707.11 45.84 Q1707.03 39.7232 1703.67 36.0774 Q1700.35 32.4315 1694.84 32.4315 Q1688.6 32.4315 1684.83 35.9558 Q1681.1 39.4801 1680.54 45.8805 L1707.11 45.84 Z" fill="#000000" fill-rule="nonzero" fill-opacity="1"></path><path clip-path="url(#clip550)" d="M1770.75 32.4315 Q1764.75 32.4315 1761.27 37.1306 Q1757.79 41.7891 1757.79 49.9314 Q1757.79 58.0738 1761.23 62.7728 Q1764.71 67.4314 1770.75 67.4314 Q1776.7 67.4314 1780.19 62.7323 Q1783.67 58.0333 1783.67 49.9314 Q1783.67 41.8701 1780.19 37.1711 Q1776.7 32.4315 1770.75 32.4315 M1770.75 26.1121 Q1780.47 26.1121 1786.02 32.4315 Q1791.57 38.7509 1791.57 49.9314 Q1791.57 61.0714 1786.02 67.4314 Q1780.47 73.7508 1770.75 73.7508 Q1760.99 73.7508 1755.44 67.4314 Q1749.93 61.0714 1749.93 49.9314 Q1749.93 38.7509 1755.44 32.4315 Q1760.99 26.1121 1770.75 26.1121 Z" fill="#000000" fill-rule="nonzero" fill-opacity="1"></path><path clip-path="url(#clip550)" d="M1833.78 34.0924 L1833.78 9.54393 L1841.24 9.54393 L1841.24 72.576 L1833.78 72.576 L1833.78 65.7705 Q1831.43 69.8214 1827.83 71.8063 Q1824.26 73.7508 1819.24 73.7508 Q1811.02 73.7508 1805.83 67.1883 Q1800.69 60.6258 1800.69 49.9314 Q1800.69 39.2371 1805.83 32.6746 Q1811.02 26.1121 1819.24 26.1121 Q1824.26 26.1121 1827.83 28.0971 Q1831.43 30.0415 1833.78 34.0924 M1808.38 49.9314 Q1808.38 58.1548 1811.75 62.8538 Q1815.15 67.5124 1821.06 67.5124 Q1826.98 67.5124 1830.38 62.8538 Q1833.78 58.1548 1833.78 49.9314 Q1833.78 41.7081 1830.38 37.0496 Q1826.98 32.3505 1821.06 32.3505 Q1815.15 32.3505 1811.75 37.0496 Q1808.38 41.7081 1808.38 49.9314 Z" fill="#000000" fill-rule="nonzero" fill-opacity="1"></path><path clip-path="url(#clip550)" d="M1900.54 32.4315 Q1894.55 32.4315 1891.06 37.1306 Q1887.58 41.7891 1887.58 49.9314 Q1887.58 58.0738 1891.02 62.7728 Q1894.51 67.4314 1900.54 67.4314 Q1906.5 67.4314 1909.98 62.7323 Q1913.46 58.0333 1913.46 49.9314 Q1913.46 41.8701 1909.98 37.1711 Q1906.5 32.4315 1900.54 32.4315 M1900.54 26.1121 Q1910.26 26.1121 1915.81 32.4315 Q1921.36 38.7509 1921.36 49.9314 Q1921.36 61.0714 1915.81 67.4314 Q1910.26 73.7508 1900.54 73.7508 Q1890.78 73.7508 1885.23 67.4314 Q1879.72 61.0714 1879.72 49.9314 Q1879.72 38.7509 1885.23 32.4315 Q1890.78 26.1121 1900.54 26.1121 Z" fill="#000000" fill-rule="nonzero" fill-opacity="1"></path><path clip-path="url(#clip550)" d="M1969.04 35.9153 Q1971.84 30.8922 1975.73 28.5022 Q1979.61 26.1121 1984.88 26.1121 Q1991.97 26.1121 1995.82 31.0947 Q1999.67 36.0368 1999.67 45.1919 L1999.67 72.576 L1992.17 72.576 L1992.17 45.4349 Q1992.17 38.913 1989.86 35.7533 Q1987.55 32.5936 1982.81 32.5936 Q1977.02 32.5936 1973.66 36.4419 Q1970.3 40.2903 1970.3 46.9338 L1970.3 72.576 L1962.8 72.576 L1962.8 45.4349 Q1962.8 38.8725 1960.49 35.7533 Q1958.19 32.5936 1953.36 32.5936 Q1947.65 32.5936 1944.29 36.4824 Q1940.93 40.3308 1940.93 46.9338 L1940.93 72.576 L1933.43 72.576 L1933.43 27.2059 L1940.93 27.2059 L1940.93 34.2544 Q1943.48 30.082 1947.05 28.0971 Q1950.61 26.1121 1955.51 26.1121 Q1960.45 26.1121 1963.9 28.6237 Q1967.38 31.1352 1969.04 35.9153 Z" fill="#000000" fill-rule="nonzero" fill-opacity="1"></path><path clip-path="url(#clip550)" d="M2053.34 48.0275 L2053.34 51.6733 L2019.07 51.6733 Q2019.56 59.3701 2023.69 63.421 Q2027.86 67.4314 2035.27 67.4314 Q2039.57 67.4314 2043.58 66.3781 Q2047.63 65.3249 2051.6 63.2184 L2051.6 70.267 Q2047.59 71.9684 2043.38 72.8596 Q2039.16 73.7508 2034.83 73.7508 Q2023.97 73.7508 2017.61 67.4314 Q2011.29 61.1119 2011.29 50.3365 Q2011.29 39.1965 2017.29 32.6746 Q2023.32 26.1121 2033.53 26.1121 Q2042.69 26.1121 2047.99 32.0264 Q2053.34 37.9003 2053.34 48.0275 M2045.89 45.84 Q2045.81 39.7232 2042.44 36.0774 Q2039.12 32.4315 2033.61 32.4315 Q2027.37 32.4315 2023.61 35.9558 Q2019.88 39.4801 2019.31 45.8805 L2045.89 45.84 Z" fill="#000000" fill-rule="nonzero" fill-opacity="1"></path><path clip-path="url(#clip550)" d="M2095.43 49.3643 Q2095.43 41.2625 2092.07 36.8065 Q2088.75 32.3505 2082.71 32.3505 Q2076.71 32.3505 2073.35 36.8065 Q2070.03 41.2625 2070.03 49.3643 Q2070.03 57.4256 2073.35 61.8816 Q2076.71 66.3376 2082.71 66.3376 Q2088.75 66.3376 2092.07 61.8816 Q2095.43 57.4256 2095.43 49.3643 M2102.88 66.9452 Q2102.88 78.5308 2097.74 84.1616 Q2092.59 89.8329 2081.98 89.8329 Q2078.05 89.8329 2074.57 89.2252 Q2071.08 88.6581 2067.8 87.4428 L2067.8 80.1917 Q2071.08 81.9741 2074.28 82.8248 Q2077.48 83.6755 2080.81 83.6755 Q2088.14 83.6755 2091.78 79.8271 Q2095.43 76.0193 2095.43 68.282 L2095.43 64.5957 Q2093.12 68.6061 2089.52 70.5911 Q2085.91 72.576 2080.89 72.576 Q2072.54 72.576 2067.44 66.2161 Q2062.33 59.8562 2062.33 49.3643 Q2062.33 38.832 2067.44 32.472 Q2072.54 26.1121 2080.89 26.1121 Q2085.91 26.1121 2089.52 28.0971 Q2093.12 30.082 2095.43 34.0924 L2095.43 27.2059 L2102.88 27.2059 L2102.88 66.9452 Z" fill="#000000" fill-rule="nonzero" fill-opacity="1"></path><path clip-path="url(#clip550)" d="M2138.86 49.7694 Q2129.82 49.7694 2126.34 51.8354 Q2122.85 53.9013 2122.85 58.8839 Q2122.85 62.8538 2125.45 65.2034 Q2128.08 67.5124 2132.58 67.5124 Q2138.77 67.5124 2142.5 63.1374 Q2146.27 58.7219 2146.27 51.4303 L2146.27 49.7694 L2138.86 49.7694 M2153.72 46.6907 L2153.72 72.576 L2146.27 72.576 L2146.27 65.6895 Q2143.72 69.8214 2139.91 71.8063 Q2136.1 73.7508 2130.59 73.7508 Q2123.62 73.7508 2119.49 69.8619 Q2115.4 65.9325 2115.4 59.3701 Q2115.4 51.7138 2120.51 47.825 Q2125.65 43.9361 2135.82 43.9361 L2146.27 43.9361 L2146.27 43.2069 Q2146.27 38.0623 2142.87 35.2672 Q2139.5 32.4315 2133.39 32.4315 Q2129.5 32.4315 2125.81 33.3632 Q2122.13 34.295 2118.72 36.1584 L2118.72 29.2718 Q2122.81 27.692 2126.66 26.9223 Q2130.51 26.1121 2134.16 26.1121 Q2144 26.1121 2148.86 31.2163 Q2153.72 36.3204 2153.72 46.6907 Z" fill="#000000" fill-rule="nonzero" fill-opacity="1"></path><polyline clip-path="url(#clip552)" style="stroke:#009af9; stroke-linecap:round; stroke-linejoin:round; stroke-width:4; stroke-opacity:1; fill:none" points="295.211,1254.39 476.813,1386.4 658.414,1322.93 731.055,1322.93 1203.22,160.256 2292.83,160.256 "></polyline>
<path clip-path="url(#clip550)" d="M305.865 270.476 L570.043 270.476 L570.043 166.796 L305.865 166.796  Z" fill="#ffffff" fill-rule="evenodd" fill-opacity="1"></path>
<polyline clip-path="url(#clip550)" style="stroke:#000000; stroke-linecap:round; stroke-linejoin:round; stroke-width:4; stroke-opacity:1; fill:none" points="305.865,270.476 570.043,270.476 570.043,166.796 305.865,166.796 305.865,270.476 "></polyline>
<polyline clip-path="url(#clip550)" style="stroke:#009af9; stroke-linecap:round; stroke-linejoin:round; stroke-width:4; stroke-opacity:1; fill:none" points="329.393,218.636 470.558,218.636 "></polyline>
<path clip-path="url(#clip550)" d="M507.928 238.323 Q506.122 242.953 504.409 244.365 Q502.696 245.777 499.826 245.777 L496.423 245.777 L496.423 242.212 L498.923 242.212 Q500.682 242.212 501.655 241.379 Q502.627 240.545 503.807 237.443 L504.571 235.499 L494.085 209.99 L498.599 209.99 L506.701 230.268 L514.803 209.99 L519.316 209.99 L507.928 238.323 Z" fill="#000000" fill-rule="nonzero" fill-opacity="1"></path><path clip-path="url(#clip550)" d="M526.608 231.981 L534.247 231.981 L534.247 205.615 L525.937 207.282 L525.937 203.022 L534.201 201.356 L538.877 201.356 L538.877 231.981 L546.515 231.981 L546.515 235.916 L526.608 235.916 L526.608 231.981 Z" fill="#000000" fill-rule="nonzero" fill-opacity="1"></path></svg>